<svg width="18" height="18" viewBox="0 0 18 18" fill="none" xmlns="http://www.w3.org/2000/svg">
<path d="M8.99821 17.9988C8.5934 17.9987 8.18908 17.9725 7.78814 17.9204C7.02735 17.8219 6.28276 17.6347 5.57174 17.3634C4.09065 16.795 2.79962 15.8664 1.83288 14.6742C1.34226 14.0756 0.941378 13.4172 0.641333 12.7173C0.064838 11.3669 -0.127613 9.90018 0.0827028 8.45977C0.293018 7.01936 0.898939 5.65431 1.84152 4.49741C2.33201 3.8948 2.90819 3.35746 3.55414 2.90025C3.82323 2.72291 4.15548 2.64997 4.48099 2.69678C4.80649 2.74359 5.09986 2.90651 5.29936 3.15124C5.49885 3.39597 5.58891 3.70344 5.55059 4.00893C5.51227 4.31442 5.34855 4.59412 5.09389 4.78916C4.63171 5.11565 4.21922 5.49933 3.86777 5.92966C3.52731 6.34821 3.24595 6.80593 3.0306 7.29156C2.81965 7.76897 2.67524 8.2697 2.6009 8.78147C2.4485 9.81661 2.58722 10.871 3.00343 11.8409C3.21811 12.3407 3.50474 12.811 3.85542 13.2385C4.20622 13.6713 4.61828 14.0577 5.0803 14.3871C5.52695 14.705 6.01589 14.9674 6.53485 15.1678C7.04849 15.3644 7.58653 15.5 8.13634 15.5714C8.68176 15.6419 9.23476 15.6451 9.78104 15.5806C10.34 15.5136 10.8877 15.3807 11.4109 15.1851C12.4898 14.7773 13.4323 14.1076 14.141 13.2454C14.8193 12.4168 15.2536 11.4368 15.4004 10.4028C15.4755 9.89193 15.4796 9.3741 15.4128 8.8622C15.342 8.3407 15.1997 7.82987 14.9893 7.3423C14.7729 6.83843 14.4842 6.36436 14.1311 5.93312C13.7824 5.50286 13.3724 5.11914 12.9124 4.79262C12.7718 4.70138 12.6523 4.58456 12.5612 4.44916C12.4701 4.31377 12.4092 4.16259 12.3822 4.00468C12.3552 3.84678 12.3626 3.6854 12.4039 3.53023C12.4453 3.37506 12.5198 3.22928 12.6229 3.10164C12.7261 2.97401 12.8558 2.86713 13.0042 2.78743C13.1526 2.70773 13.3168 2.65685 13.4868 2.63783C13.6568 2.6188 13.8292 2.63204 13.9936 2.67674C14.158 2.72143 14.311 2.79667 14.4435 2.89794C15.0886 3.35537 15.6636 3.89314 16.1524 4.49625C16.6452 5.09837 17.0481 5.76019 17.3501 6.46358C17.6401 7.13976 17.8364 7.84778 17.9342 8.57044C18.1736 10.4099 17.756 12.2717 16.7464 13.8669C15.7368 15.462 14.1916 16.7013 12.3506 17.3923C11.627 17.6614 10.8698 17.8439 10.0971 17.9354C9.73261 17.9781 9.36559 17.9985 8.99821 17.9988ZM9.00067 9.36498C8.66358 9.36498 8.34028 9.24 8.10181 9.0175C7.86333 8.795 7.7292 8.49318 7.72887 8.17836V1.18778C7.72887 0.872759 7.86286 0.570643 8.10137 0.347892C8.33988 0.12514 8.66337 0 9.00067 0C9.33798 0 9.66147 0.12514 9.89998 0.347892C10.1385 0.570643 10.2725 0.872759 10.2725 1.18778V8.17836C10.2725 8.49338 10.1385 8.79549 9.89998 9.01824C9.66147 9.24099 9.33798 9.36614 9.00067 9.36614V9.36498Z" fill="url(#paint0_linear_5_122)"/>
<defs>
<linearGradient id="paint0_linear_5_122" x1="9" y1="0" x2="9" y2="18" gradientUnits="userSpaceOnUse">
<stop stop-color="#05FF00"/>
<stop offset="1" stop-color="#039900"/>
</linearGradient>
</defs>
</svg>
