<svg width="20" height="20" viewBox="0 0 20 20" fill="none" xmlns="http://www.w3.org/2000/svg">
<g clip-path="url(#clip0_96_400)">
<path d="M17.1515 2.44999C17.5536 2.44999 17.8796 2.124 17.8796 1.72187C17.8796 1.31974 17.5536 0.993744 17.1515 0.993744C16.7493 0.993744 16.4233 1.31974 16.4233 1.72187C16.4233 2.124 16.7493 2.44999 17.1515 2.44999Z" fill="#00EDCD"/>
<path opacity="0.75" d="M1.78596 14.2328L13.1391 2.8797C13.1563 2.86251 13.1719 2.83595 13.1875 2.80938C13.3078 2.60313 13.3203 2.40626 13.3016 2.14532C13.2688 1.70313 13.3735 1.46407 13.5875 1.3047C13.8703 1.0922 14.85 1.13595 16.6828 2.96876C18.5156 4.80157 18.5578 5.7797 18.3453 6.06251C18.186 6.27657 17.9469 6.3797 17.5047 6.34845C17.2438 6.3297 17.0469 6.34063 16.8407 6.46251C16.8125 6.47813 16.7875 6.49376 16.7703 6.51095L5.41721 17.8641C3.85784 19.4234 2.36878 19.1859 1.42346 18.2406L1.41721 18.2344L1.41096 18.2281C0.462525 17.2813 0.225026 15.7922 1.78596 14.2328Z" fill="#81D4FA"/>
<path opacity="0.39" d="M15.5923 3.62813C14.5985 2.63438 13.8423 2.13594 13.297 1.91251C13.2938 1.98282 13.2938 2.06094 13.3001 2.14532C13.3142 2.33126 13.3095 2.48438 13.2642 2.63126C13.7595 2.89844 14.3798 3.34219 15.1407 4.05469C16.2345 5.07969 16.7563 5.85313 16.9735 6.39844C17.1173 6.34532 17.2642 6.33594 17.4392 6.34376C17.3345 5.79688 16.8735 4.90782 15.5923 3.62813Z" fill="#1D44B3"/>
<path d="M8.46092 7.57969L1.82342 14.2094C0.204668 15.8266 0.409355 17.3391 1.34998 18.2797C2.29061 19.2188 3.79998 19.4281 5.42186 17.8063L15.9375 7.35001L8.46092 7.57969Z" fill="#00BFA5"/>
<path d="M7.04063 12.8156C7.47728 12.8156 7.83125 12.4616 7.83125 12.025C7.83125 11.5883 7.47728 11.2344 7.04063 11.2344C6.60398 11.2344 6.25 11.5883 6.25 12.025C6.25 12.4616 6.60398 12.8156 7.04063 12.8156Z" fill="#00937A"/>
<path d="M15.0907 6.53125C15.5014 6.53125 15.8344 6.19826 15.8344 5.7875C15.8344 5.37674 15.5014 5.04375 15.0907 5.04375C14.6799 5.04375 14.3469 5.37674 14.3469 5.7875C14.3469 6.19826 14.6799 6.53125 15.0907 6.53125Z" fill="#00BFA5"/>
<path d="M19.0375 2.21563C19.2248 2.21563 19.3766 2.06383 19.3766 1.87657C19.3766 1.68931 19.2248 1.53751 19.0375 1.53751C18.8503 1.53751 18.6985 1.68931 18.6985 1.87657C18.6985 2.06383 18.8503 2.21563 19.0375 2.21563Z" fill="#00BFA5"/>
<path d="M9.24219 11.9594C9.58737 11.9594 9.86719 11.6796 9.86719 11.3344C9.86719 10.9892 9.58737 10.7094 9.24219 10.7094C8.89701 10.7094 8.61719 10.9892 8.61719 11.3344C8.61719 11.6796 8.89701 11.9594 9.24219 11.9594Z" fill="#00EDCD"/>
<path d="M9.96084 9.79062C10.0937 9.79062 10.2015 9.68289 10.2015 9.55C10.2015 9.4171 10.0937 9.30937 9.96084 9.30937C9.82795 9.30937 9.72021 9.4171 9.72021 9.55C9.72021 9.68289 9.82795 9.79062 9.96084 9.79062Z" fill="#00EDCD"/>
<path d="M15.9406 7.3375C15.8093 7.45312 15.3828 7.52969 14.2609 7.70469C13.6656 7.79844 12.9375 7.89219 12.1015 7.96094C9.4812 8.17812 7.71402 7.82031 8.76245 7.39219C9.60464 7.04844 12.5953 7.12344 14.4671 7.18281C15.3703 7.2125 16.0437 7.24844 15.9406 7.3375Z" fill="#00EDCD"/>
</g>
<defs>
<clipPath id="clip0_96_400">
<rect width="20" height="20" fill="white"/>
</clipPath>
</defs>
</svg>
