<svg width="18" height="18" viewBox="0 0 18 18" fill="none" xmlns="http://www.w3.org/2000/svg">
<path d="M8.99821 18C8.5934 17.9999 8.18908 17.9737 7.78814 17.9216C7.02735 17.823 6.28276 17.6359 5.57174 17.3646C4.09065 16.7961 2.79962 15.8674 1.83288 14.6752C1.34226 14.0765 0.941378 13.418 0.641333 12.7181C0.064838 11.3676 -0.127613 9.90082 0.0827028 8.46032C0.293018 7.01981 0.898939 5.65467 1.84152 4.49769C2.33201 3.89505 2.90819 3.35768 3.55414 2.90044C3.82323 2.72308 4.15548 2.65014 4.48099 2.69695C4.80649 2.74377 5.09986 2.90669 5.29936 3.15144C5.49885 3.39619 5.58891 3.70367 5.55059 4.00919C5.51227 4.3147 5.34855 4.59441 5.09389 4.78947C4.63171 5.11598 4.21922 5.49969 3.86777 5.93004C3.52731 6.34861 3.24595 6.80637 3.0306 7.29203C2.81965 7.76947 2.67524 8.27023 2.6009 8.78203C2.4485 9.81724 2.58722 10.8717 3.00343 11.8416C3.21811 12.3415 3.50474 12.8118 3.85542 13.2394C4.20622 13.6722 4.61828 14.0586 5.0803 14.388C5.52695 14.7059 6.01589 14.9684 6.53485 15.1688C7.04849 15.3654 7.58653 15.501 8.13634 15.5724C8.68176 15.643 9.23476 15.6461 9.78104 15.5816C10.34 15.5146 10.8877 15.3817 11.4109 15.1861C12.4898 14.7782 13.4323 14.1085 14.141 13.2463C14.8193 12.4176 15.2536 11.4375 15.4004 10.4035C15.4755 9.89256 15.4796 9.3747 15.4128 8.86276C15.342 8.34123 15.1997 7.83038 14.9893 7.34277C14.7729 6.83887 14.4842 6.36477 14.1311 5.9335C13.7824 5.50321 13.3724 5.11947 12.9124 4.79293C12.7718 4.70168 12.6523 4.58485 12.5612 4.44945C12.4701 4.31405 12.4092 4.16286 12.3822 4.00494C12.3552 3.84703 12.3626 3.68564 12.4039 3.53046C12.4453 3.37527 12.5198 3.22949 12.6229 3.10184C12.7261 2.9742 12.8558 2.86732 13.0042 2.78761C13.1526 2.70791 13.3168 2.65702 13.4868 2.63799C13.6568 2.61897 13.8292 2.63221 13.9936 2.67691C14.158 2.72161 14.311 2.79685 14.4435 2.89813C15.0886 3.35559 15.6636 3.89339 16.1524 4.49654C16.6452 5.0987 17.0481 5.76056 17.3501 6.46399C17.6401 7.14022 17.8364 7.84828 17.9342 8.57099C18.1736 10.4106 17.756 12.2725 16.7464 13.8678C15.7368 15.463 14.1916 16.7024 12.3506 17.3934C11.627 17.6625 10.8698 17.845 10.0971 17.9366C9.73261 17.9793 9.36559 17.9997 8.99821 18ZM9.00067 9.36558C8.66358 9.36558 8.34028 9.24059 8.10181 9.01807C7.86333 8.79556 7.7292 8.49372 7.72887 8.17888V1.18785C7.72887 0.872814 7.86286 0.57068 8.10137 0.347914C8.33988 0.125148 8.66337 0 9.00067 0C9.33798 0 9.66147 0.125148 9.89998 0.347914C10.1385 0.57068 10.2725 0.872814 10.2725 1.18785V8.17888C10.2725 8.49392 10.1385 8.79605 9.89998 9.01882C9.66147 9.24159 9.33798 9.36674 9.00067 9.36674V9.36558Z" fill="url(#paint0_linear_96_321)"/>
<defs>
<linearGradient id="paint0_linear_96_321" x1="9" y1="0" x2="9" y2="18.0012" gradientUnits="userSpaceOnUse">
<stop stop-color="#FF0000"/>
<stop offset="1" stop-color="#990000"/>
</linearGradient>
</defs>
</svg>
