<svg width="20" height="20" viewBox="0 0 20 20" fill="none" xmlns="http://www.w3.org/2000/svg">
<g clip-path="url(#clip0_96_420)">
<path d="M18.7419 6.7742L18.7097 6.12904C18.7097 5.35484 18.0968 4.83871 17.3871 4.83871H1.32258C0.580645 4.83871 0 5.3871 0 6.12904V13.871C0 14.6452 0.580645 15.1613 1.32258 15.1613H17.3871C18.0968 15.1613 18.7097 14.6129 18.7097 13.871V13.2258H18.7419C19.4516 13.2258 20 12.7097 20 12.0323V7.96775C20 7.29033 19.4194 6.7742 18.7419 6.7742Z" fill="#112827"/>
<path d="M17.3871 15.1613L6.96774 4.83871H1.32258C0.580645 4.83871 0 5.3871 0 6.12904V13.871C0 14.6452 0.580645 15.1613 1.32258 15.1613H17.3871Z" fill="#363F3E"/>
<path d="M10.5806 14.5161H1.32258C0.935484 14.5161 0.645161 14.2581 0.645161 13.871V6.12903C0.645161 5.87096 0.774194 5.67742 0.967742 5.51613L0.483871 5.09677C0.16129 5.35484 0 5.70967 0 6.12903V13.871C0 14.6452 0.580645 15.1613 1.32258 15.1613H11.2581L10.5806 14.5161Z" fill="#555E5C"/>
<path d="M11.0644 8.90323C10.9999 8.80645 10.9031 8.70968 10.8064 8.70968H8.70959L10.0322 6.03226C10.0967 5.87097 10.0322 5.70968 9.87089 5.64516C9.70959 5.58064 9.51605 5.64516 9.45153 5.80645L7.03218 10.8065C6.99992 10.9032 6.99992 11.0645 7.06443 11.129C7.12895 11.1935 7.22572 11.3226 7.3225 11.3226H9.41927L8.09669 14C8.03218 14.1613 8.09669 14.3226 8.25798 14.3871C8.29024 14.4194 8.35476 14.4194 8.38701 14.4194C8.51605 14.4194 8.61282 14.3548 8.67734 14.2258L11.0967 9.22581C11.129 9.12903 11.1289 8.96774 11.0644 8.90323ZM9.70959 10.6452H7.80637L8.38701 9.35484H10.2902L9.70959 10.6452Z" fill="#1BCEB8"/>
<path d="M9.6773 10.6452H7.8386L8.41924 9.35484H8.51601L7.99989 8.83871L7.0644 10.7419C7.03214 10.8387 7.03214 11 7.09666 11.0968C7.16118 11.1936 7.25795 11.2903 7.35472 11.2903H9.4515L8.12892 13.9677C8.0644 14.129 8.12892 14.2903 8.29021 14.3548C8.32247 14.3871 8.38698 14.3871 8.41924 14.3871C8.54827 14.3871 8.64505 14.3226 8.70956 14.1936L10.1934 11.0968L9.6773 10.6452Z" fill="#37F7D7"/>
<path d="M2.48383 10.1936C2.59073 10.1936 2.67738 10.1069 2.67738 10C2.67738 9.89311 2.59073 9.80646 2.48383 9.80646C2.37694 9.80646 2.29028 9.89311 2.29028 10C2.29028 10.1069 2.37694 10.1936 2.48383 10.1936Z" fill="#37F7D7"/>
<path d="M3.87104 10.1936C3.97793 10.1936 4.06459 10.1069 4.06459 10C4.06459 9.89311 3.97793 9.80646 3.87104 9.80646C3.76414 9.80646 3.67749 9.89311 3.67749 10C3.67749 10.1069 3.76414 10.1936 3.87104 10.1936Z" fill="#37F7D7"/>
<path d="M5.258 10.1936C5.3649 10.1936 5.45155 10.1069 5.45155 10C5.45155 9.89311 5.3649 9.80646 5.258 9.80646C5.15111 9.80646 5.06445 9.89311 5.06445 10C5.06445 10.1069 5.15111 10.1936 5.258 10.1936Z" fill="#37F7D7"/>
<path d="M12.7419 10.1936C12.8488 10.1936 12.9354 10.1069 12.9354 10C12.9354 9.89311 12.8488 9.80646 12.7419 9.80646C12.635 9.80646 12.5483 9.89311 12.5483 10C12.5483 10.1069 12.635 10.1936 12.7419 10.1936Z" fill="#1BCEB8"/>
<path d="M14.1291 10.1936C14.236 10.1936 14.3226 10.1069 14.3226 10C14.3226 9.89311 14.236 9.80646 14.1291 9.80646C14.0222 9.80646 13.9355 9.89311 13.9355 10C13.9355 10.1069 14.0222 10.1936 14.1291 10.1936Z" fill="#1BCEB8"/>
<path d="M15.5161 10.1936C15.623 10.1936 15.7096 10.1069 15.7096 10C15.7096 9.89311 15.623 9.80646 15.5161 9.80646C15.4092 9.80646 15.3225 9.89311 15.3225 10C15.3225 10.1069 15.4092 10.1936 15.5161 10.1936Z" fill="#1BCEB8"/>
</g>
<defs>
<clipPath id="clip0_96_420">
<rect width="20" height="20" fill="white"/>
</clipPath>
</defs>
</svg>
