<svg width="20" height="20" viewBox="0 0 20 20" fill="none" xmlns="http://www.w3.org/2000/svg">
<path d="M3.4375 1.25V1.875H2.8125V1.3543L1.25 1.875V2.43398L2.8125 1.91328V2.57227L1.25 3.09297V7.34375L2.8125 6.82422V11.1719H3.4375V6.85547L18.4375 13.457V17.832L3.4375 11.2305V13.5156H2.8125V11.1992L1.25 11.7188V14.0469L2.8125 13.5234V14.1836L1.25 14.7031V15.2969L2.8125 14.7734V15.4336L1.25 15.9531V18.125L2.8125 18.6445V15.4688H3.4375V14.7969L11.043 18.125H9.48828L3.4375 15.4766V18.75H19.0625V1.25H18.4375H3.4375ZM3.4375 1.90273L18.4375 8.40234V9.07812L3.4375 2.58359V6.79688H2.8125V2.57812H3.4375V1.90273ZM3.4375 13.5469L13.7344 18.125H12.2031L3.4375 14.2305V14.7656H2.8125V14.2188H3.4375V13.5469Z" fill="url(#paint0_linear_96_329)"/>
<defs>
<linearGradient id="paint0_linear_96_329" x1="10.1562" y1="1.25" x2="10.1563" y2="18.75" gradientUnits="userSpaceOnUse">
<stop stop-color="#FBFBFB"/>
<stop offset="0.28" stop-color="#A6A6A6"/>
<stop offset="1" stop-color="#3C3C3C"/>
</linearGradient>
</defs>
</svg>
