<svg width="20" height="20" viewBox="0 0 20 20" fill="none" xmlns="http://www.w3.org/2000/svg">
<g clip-path="url(#clip0_96_378)">
<path d="M12.9727 11.6426C12.9727 14.8281 11.1641 16.1328 8.93555 16.1328C6.70703 16.1328 4.89844 14.8281 4.89844 11.6426C4.89844 8.45703 8.93555 3.31836 8.93555 3.31836C8.93555 3.31836 12.9727 8.45703 12.9727 11.6426Z" fill="#44C0C6"/>
<path d="M8.93555 16.334C7.70703 16.334 6.66992 15.9512 5.9375 15.2246C5.11328 14.4082 4.69531 13.2012 4.69531 11.6406C4.69531 10.2832 5.38477 8.44531 6.74219 6.17969C7.74609 4.50586 8.76562 3.20508 8.77539 3.19141C8.81445 3.14258 8.87305 3.11328 8.93359 3.11328C8.99609 3.11328 9.05469 3.14258 9.0918 3.19141C9.10156 3.20508 10.1211 4.50586 11.125 6.17969C12.4844 8.44531 13.1719 10.2812 13.1719 11.6406C13.1719 13.2012 12.7539 14.4062 11.9297 15.2246C11.2012 15.9492 10.1641 16.334 8.93555 16.334ZM8.93555 3.65039C8.61328 4.07812 7.8457 5.12695 7.08789 6.39258C6.18164 7.9043 5.09961 10.043 5.09961 11.6406C5.09961 13.0898 5.47656 14.1992 6.22266 14.9375C6.87695 15.5859 7.81445 15.9297 8.93555 15.9297C10.0566 15.9297 10.9941 15.5859 11.6484 14.9375C12.3926 14.1992 12.7715 13.0898 12.7715 11.6406C12.7715 10.043 11.6914 7.9043 10.7832 6.39258C10.0254 5.12891 9.25781 4.08008 8.93555 3.65039Z" fill="black"/>
<path d="M12.4785 2.24609C12.4785 2.74907 12.6783 3.23145 13.034 3.58711C13.3896 3.94277 13.872 4.14258 14.375 4.14258C14.878 4.14258 15.3604 3.94277 15.716 3.58711C16.0717 3.23145 16.2715 2.74907 16.2715 2.24609C16.2715 1.74311 16.0717 1.26074 15.716 0.905077C15.3604 0.549417 14.878 0.349609 14.375 0.349609C13.872 0.349609 13.3896 0.549417 13.034 0.905077C12.6783 1.26074 12.4785 1.74311 12.4785 2.24609Z" fill="#80F9E7"/>
<path d="M14.375 4.34375C13.2188 4.34375 12.2773 3.40234 12.2773 2.24609C12.2773 1.08984 13.2188 0.148438 14.375 0.148438C15.5313 0.148438 16.4727 1.08984 16.4727 2.24609C16.4727 3.40234 15.5332 4.34375 14.375 4.34375ZM14.375 0.550781C13.4414 0.550781 12.6797 1.31055 12.6797 2.24609C12.6797 3.17969 13.4395 3.94141 14.375 3.94141C15.3105 3.94141 16.0703 3.18164 16.0703 2.24609C16.0703 1.3125 15.3105 0.550781 14.375 0.550781Z" fill="black"/>
<path d="M11.0781 9.99805C11.0781 10.2145 11.1208 10.4289 11.2036 10.6289C11.2864 10.8289 11.4079 11.0106 11.5609 11.1637C11.714 11.3167 11.8957 11.4382 12.0957 11.521C12.2957 11.6038 12.5101 11.6465 12.7266 11.6465C12.943 11.6465 13.1574 11.6038 13.3574 11.521C13.5574 11.4382 13.7391 11.3167 13.8922 11.1637C14.0453 11.0106 14.1667 10.8289 14.2495 10.6289C14.3324 10.4289 14.375 10.2145 14.375 9.99805C14.375 9.78157 14.3324 9.56722 14.2495 9.36722C14.1667 9.16722 14.0453 8.9855 13.8922 8.83243C13.7391 8.67935 13.5574 8.55793 13.3574 8.47509C13.1574 8.39225 12.943 8.34961 12.7266 8.34961C12.5101 8.34961 12.2957 8.39225 12.0957 8.47509C11.8957 8.55793 11.714 8.67935 11.5609 8.83243C11.4079 8.9855 11.2864 9.16722 11.2036 9.36722C11.1208 9.56722 11.0781 9.78157 11.0781 9.99805Z" fill="#80F9E7"/>
<path d="M12.7266 11.8496C11.7051 11.8496 10.875 11.0195 10.875 9.99805C10.875 8.97656 11.7051 8.14648 12.7266 8.14648C13.748 8.14648 14.5781 8.97656 14.5781 9.99805C14.5781 11.0195 13.7461 11.8496 12.7266 11.8496ZM12.7266 8.55078C11.9277 8.55078 11.2793 9.19922 11.2793 9.99805C11.2793 10.7969 11.9277 11.4453 12.7266 11.4453C13.5254 11.4453 14.1738 10.7969 14.1738 9.99805C14.1738 9.19922 13.5234 8.55078 12.7266 8.55078Z" fill="black"/>
<path d="M2.53516 18.0293C2.53516 18.4665 2.70883 18.8858 3.01797 19.1949C3.32711 19.5041 3.7464 19.6777 4.18359 19.6777C4.62079 19.6777 5.04007 19.5041 5.34922 19.1949C5.65836 18.8858 5.83203 18.4665 5.83203 18.0293C5.83203 17.5921 5.65836 17.1728 5.34922 16.8637C5.04007 16.5545 4.62079 16.3809 4.18359 16.3809C3.7464 16.3809 3.32711 16.5545 3.01797 16.8637C2.70883 17.1728 2.53516 17.5921 2.53516 18.0293Z" fill="#80F9E7"/>
<path d="M4.18359 19.8809C3.16211 19.8809 2.33203 19.0508 2.33203 18.0293C2.33203 17.0078 3.16211 16.1777 4.18359 16.1777C5.20508 16.1777 6.03516 17.0078 6.03516 18.0293C6.03516 19.0508 5.20508 19.8809 4.18359 19.8809ZM4.18359 16.582C3.38477 16.582 2.73633 17.2305 2.73633 18.0293C2.73633 18.8281 3.38477 19.4766 4.18359 19.4766C4.98242 19.4766 5.63086 18.8281 5.63086 18.0293C5.63086 17.2324 4.98242 16.582 4.18359 16.582Z" fill="black"/>
<path d="M16.4277 12.1465C16.4277 12.4775 16.5592 12.7949 16.7933 13.029C17.0273 13.263 17.3448 13.3945 17.6758 13.3945C18.0068 13.3945 18.3242 13.263 18.5583 13.029C18.7923 12.7949 18.9238 12.4775 18.9238 12.1465C18.9238 11.8155 18.7923 11.498 18.5583 11.264C18.3242 11.0299 18.0068 10.8984 17.6758 10.8984C17.3448 10.8984 17.0273 11.0299 16.7933 11.264C16.5592 11.498 16.4277 11.8155 16.4277 12.1465Z" fill="#80F9E7"/>
<path d="M17.6758 13.5977C16.877 13.5977 16.2266 12.9473 16.2266 12.1484C16.2266 11.3496 16.877 10.6992 17.6758 10.6992C18.4746 10.6992 19.125 11.3496 19.125 12.1484C19.125 12.9473 18.4746 13.5977 17.6758 13.5977ZM17.6758 11.1016C17.0996 11.1016 16.6289 11.5703 16.6289 12.1484C16.6289 12.7246 17.0977 13.1953 17.6758 13.1953C18.252 13.1953 18.7227 12.7266 18.7227 12.1484C18.7227 11.5703 18.252 11.1016 17.6758 11.1016Z" fill="black"/>
<path d="M3.59961 4.35352C3.59961 4.68452 3.7311 5.00196 3.96515 5.23602C4.19921 5.47007 4.51665 5.60156 4.84766 5.60156C5.17866 5.60156 5.4961 5.47007 5.73016 5.23602C5.96421 5.00196 6.0957 4.68452 6.0957 4.35352C6.0957 4.02251 5.96421 3.70507 5.73016 3.47101C5.4961 3.23696 5.17866 3.10547 4.84766 3.10547C4.51665 3.10547 4.19921 3.23696 3.96515 3.47101C3.7311 3.70507 3.59961 4.02251 3.59961 4.35352Z" fill="#80F9E7"/>
<path d="M4.84766 5.80273C4.04883 5.80273 3.39844 5.15234 3.39844 4.35352C3.39844 3.55469 4.04883 2.9043 4.84766 2.9043C5.64648 2.9043 6.29688 3.55469 6.29688 4.35352C6.29688 5.15234 5.64844 5.80273 4.84766 5.80273ZM4.84766 3.30664C4.27148 3.30664 3.80078 3.77539 3.80078 4.35352C3.80078 4.93164 4.26953 5.40039 4.84766 5.40039C5.42383 5.40039 5.89453 4.93164 5.89453 4.35352C5.89453 3.77539 5.42578 3.30664 4.84766 3.30664Z" fill="black"/>
<path d="M12.7266 18.1504C12.7266 18.4327 12.8387 18.7034 13.0383 18.9031C13.238 19.1027 13.5087 19.2148 13.791 19.2148C14.0733 19.2148 14.3441 19.1027 14.5437 18.9031C14.7433 18.7034 14.8555 18.4327 14.8555 18.1504C14.8555 17.8681 14.7433 17.5973 14.5437 17.3977C14.3441 17.1981 14.0733 17.0859 13.791 17.0859C13.5087 17.0859 13.238 17.1981 13.0383 17.3977C12.8387 17.5973 12.7266 17.8681 12.7266 18.1504Z" fill="#80F9E7"/>
<path d="M13.791 19.418C13.0918 19.418 12.5234 18.8496 12.5234 18.1504C12.5234 17.4512 13.0918 16.8828 13.791 16.8828C14.4902 16.8828 15.0586 17.4512 15.0586 18.1504C15.0586 18.8496 14.4902 19.418 13.791 19.418ZM13.791 17.2871C13.3145 17.2871 12.9277 17.6738 12.9277 18.1504C12.9277 18.627 13.3145 19.0137 13.791 19.0137C14.2676 19.0137 14.6543 18.627 14.6543 18.1504C14.6543 17.6738 14.2676 17.2871 13.791 17.2871Z" fill="black"/>
<path d="M1.05078 9.625C1.05078 9.96325 1.18515 10.2877 1.42433 10.5268C1.66352 10.766 1.98792 10.9004 2.32617 10.9004C2.66443 10.9004 2.98883 10.766 3.22801 10.5268C3.46719 10.2877 3.60156 9.96325 3.60156 9.625C3.60156 9.28675 3.46719 8.96234 3.22801 8.72316C2.98883 8.48398 2.66443 8.34961 2.32617 8.34961C1.98792 8.34961 1.66352 8.48398 1.42433 8.72316C1.18515 8.96234 1.05078 9.28675 1.05078 9.625Z" fill="#80F9E7"/>
<path d="M2.32617 11.1016C1.51172 11.1016 0.849609 10.4395 0.849609 9.625C0.849609 8.81055 1.51172 8.14844 2.32617 8.14844C3.14062 8.14844 3.80273 8.81055 3.80273 9.625C3.80273 10.4395 3.14062 11.1016 2.32617 11.1016ZM2.32617 8.55078C1.73438 8.55078 1.25195 9.0332 1.25195 9.625C1.25195 10.2168 1.73438 10.6992 2.32617 10.6992C2.91797 10.6992 3.40039 10.2168 3.40039 9.625C3.39844 9.03125 2.91797 8.55078 2.32617 8.55078Z" fill="black"/>
</g>
<defs>
<clipPath id="clip0_96_378">
<rect width="20" height="20" fill="white"/>
</clipPath>
</defs>
</svg>
