<svg width="20" height="20" viewBox="0 0 20 20" fill="none" xmlns="http://www.w3.org/2000/svg">
<g clip-path="url(#clip0_96_340)">
<path d="M4.19349 16.1828C6.12896 16.1828 6.12896 15.3226 8.06446 15.3226C9.99997 15.3226 9.99993 16.1828 11.9311 16.1828C13.8709 16.1828 13.8709 15.3226 15.8064 15.3226C17.7419 15.3226 17.7418 16.1828 19.6774 16.1828V18.9785H0.32251V15.3226C2.25798 15.3226 2.25798 16.1828 4.19349 16.1828Z" fill="#704324"/>
<path d="M19.6774 7.7957V11.8817C17.7419 11.8817 17.7419 11.0215 15.8064 11.0215C13.8709 11.0215 13.8709 11.8817 11.9311 11.8817C9.99997 11.8817 9.99997 11.0215 8.06446 11.0215C6.12896 11.0215 6.12899 11.8817 4.19349 11.8817C2.25798 11.8817 2.25802 11.0215 0.32251 11.0215V7.7957H19.6774Z" fill="#704324"/>
<path d="M11.9311 11.8817C13.8709 11.8817 13.8709 11.0215 15.8064 11.0215C17.7419 11.0215 17.7419 11.8817 19.6774 11.8817V16.1828C17.7419 16.1828 17.7419 15.3226 15.8064 15.3226C13.8709 15.3226 13.8709 16.1828 11.9311 16.1828C9.99997 16.1828 9.99997 15.3226 8.06446 15.3226C6.12896 15.3226 6.12899 16.1828 4.19349 16.1828C2.25798 16.1828 2.25802 15.3226 0.32251 15.3226V11.0215C2.25798 11.0215 2.25798 11.8818 4.19349 11.8818C6.12899 11.8818 6.12896 11.0215 8.06446 11.0215C9.99997 11.0215 9.99997 11.8817 11.9311 11.8817Z" fill="#A26234"/>
<path d="M5.91392 6.2903C5.91392 6.2903 6.21931 4.46233 7.24724 3.0387L7.41927 3.06452H12.7698C13.7849 4.48385 14.0859 6.29034 14.0859 6.29034C14.0859 6.29034 14.3913 4.46237 15.4193 3.03874L15.5913 3.06456H19.6773V7.79569H0.32251V3.06452H4.59778C5.61282 4.48385 5.91392 6.2903 5.91392 6.2903Z" fill="#A58763"/>
<path d="M11.9311 16.1828C9.99997 16.1828 9.99997 15.3226 8.06446 15.3226C6.12896 15.3226 6.12899 16.1828 4.19349 16.1828C2.25798 16.1828 2.25802 15.3226 0.32251 15.3226V18.9785H19.6774V16.1828C17.7419 16.1828 17.7419 15.3226 15.8064 15.3226C13.8709 15.3226 13.8709 16.1828 11.9311 16.1828Z" fill="#61391B"/>
<path d="M8.06471 11.0215C9.33127 11.0215 9.77076 11.3891 10.4633 11.6437C9.20201 10.5498 8.12557 9.25027 7.28479 7.7957H0.322754V11.0215C2.25822 11.0215 2.25822 11.8818 4.19373 11.8818C6.12924 11.8818 6.1292 11.0215 8.06471 11.0215Z" fill="#61391B"/>
<path d="M10.463 11.6437C9.77056 11.3891 9.33107 11.0215 8.06446 11.0215C6.12899 11.0215 6.12899 11.8817 4.19349 11.8817C2.25798 11.8817 2.25802 11.0215 0.32251 11.0215V15.3226C2.25798 15.3226 2.25798 16.1828 4.19349 16.1828C6.12899 16.1828 6.12896 15.3226 8.06446 15.3226C9.99997 15.3226 9.99997 16.1828 11.9311 16.1828C13.8709 16.1828 13.8709 15.3226 15.8064 15.3226C17.7419 15.3226 17.7419 16.1828 19.6774 16.1828V15.3063C16.1564 15.158 12.9524 13.8027 10.463 11.6437Z" fill="#8E562B"/>
<path d="M6.14833 5.34952C5.97946 5.90347 5.91392 6.2903 5.91392 6.2903C5.91392 6.2903 5.61282 4.48386 4.59778 3.06448H0.32251V7.79569H7.2845C6.83661 7.02093 6.45415 6.2039 6.14833 5.34952Z" fill="#997D5C"/>
<path d="M16.0817 2.74196C16.4828 2.3193 16.9286 2.02524 17.4129 1.86552L17.2108 1.25282C16.4269 1.51137 15.7362 2.04868 15.1579 2.84989C14.8484 3.27848 14.6024 3.73887 14.4086 4.17794V0.698914H13.7635V4.17813C13.5736 3.74829 13.3336 3.29805 13.0326 2.87731C12.4522 2.06259 11.7555 1.5161 10.9617 1.2529L10.7587 1.86528C11.2433 2.02598 11.6887 2.32016 12.0889 2.74188H7.90969C8.31078 2.31923 8.7566 2.02516 9.24086 1.86544L9.03879 1.25274C8.25488 1.5113 7.56418 2.0486 6.98586 2.84981C6.67641 3.27841 6.43039 3.7388 6.23664 4.17786V0.698914H5.59148V4.17813C5.40164 3.74829 5.16156 3.29805 4.86066 2.87731C4.2802 2.06266 3.5834 1.5161 2.78969 1.25294L2.58668 1.86532C3.07133 2.02602 3.51672 2.3202 3.91691 2.74192H0V19.3011H3.11824V18.6559H0.645156V15.6543C1.33438 15.6952 1.7209 15.867 2.12703 16.0475C2.63352 16.2726 3.1573 16.5054 4.19352 16.5054C5.22973 16.5054 5.75352 16.2726 6.26 16.0475C6.72551 15.8406 7.1652 15.6452 8.06449 15.6452C8.96422 15.6452 9.40375 15.8407 9.86914 16.0478C10.3748 16.2727 10.8976 16.5054 11.9312 16.5054C12.97 16.5054 13.4947 16.2724 14.0021 16.0472C14.4678 15.8404 14.9076 15.6451 15.8064 15.6451C16.7057 15.6451 17.1454 15.8405 17.6109 16.0474C18.062 16.2479 18.527 16.4543 19.3548 16.4971V18.6559H3.97867V19.301H20V2.74196H16.0817ZM17.8729 15.4579C17.3664 15.2328 16.8427 15 15.8064 15C14.7708 15 14.247 15.2326 13.7404 15.4575C13.2739 15.6646 12.8332 15.8602 11.9312 15.8602C11.0346 15.8602 10.5959 15.665 10.1314 15.4583C9.625 15.233 9.10133 15 8.06453 15C7.02832 15 6.50453 15.2328 5.99805 15.4579C5.53254 15.6648 5.09285 15.8602 4.19355 15.8602C3.29426 15.8602 2.85457 15.6648 2.38906 15.4579C1.93805 15.2575 1.47305 15.0511 0.645156 15.0082V11.3533C1.33438 11.3941 1.7209 11.5659 2.12703 11.7464C2.63352 11.9715 3.1573 12.2043 4.19352 12.2043C5.22973 12.2043 5.75352 11.9715 6.26 11.7464C6.72551 11.5395 7.1652 11.3441 8.06449 11.3441C8.96422 11.3441 9.40375 11.5397 9.86914 11.7467C10.3748 11.9717 10.8976 12.2043 11.9312 12.2043C12.97 12.2043 13.4947 11.9714 14.0021 11.7461C14.4678 11.5393 14.9076 11.3441 15.8064 11.3441C16.7057 11.3441 17.1454 11.5395 17.6109 11.7464C18.062 11.9468 18.527 12.1532 19.3548 12.1961V15.851C18.6656 15.8102 18.2791 15.6384 17.8729 15.4579ZM2.90324 7.47313V8.11829H19.3548V11.5499C18.6656 11.5091 18.2791 11.3373 17.873 11.1568C17.3665 10.9317 16.8427 10.6989 15.8065 10.6989C14.7709 10.6989 14.247 10.9315 13.7404 11.1564C13.2739 11.3635 12.8333 11.5591 11.9312 11.5591C11.0347 11.5591 10.5959 11.3639 10.1314 11.1572C9.62504 10.9319 9.10137 10.6989 8.06457 10.6989C7.02836 10.6989 6.50457 10.9317 5.99809 11.1568C5.53258 11.3637 5.09289 11.5591 4.19359 11.5591C3.2943 11.5591 2.85461 11.3637 2.3891 11.1568C1.93809 10.9564 1.47309 10.75 0.645195 10.7071V8.11825H2.04305V7.47309H0.645156V5.32255H3.76344V4.67739H0.645156V3.38712H4.42883C5.05523 4.32106 5.37855 5.40798 5.51473 5.96778H4.40859V6.61294H7.41934V5.96778H6.31332C6.45113 5.40173 6.78016 4.29665 7.41934 3.3554V3.38716H12.6009C13.2273 4.3211 13.5506 5.40802 13.6868 5.96782H12.5807V6.61298H15.5914V5.96782H14.4854C14.6232 5.40177 14.9522 4.29669 15.5914 3.35544V3.38719H19.3548V4.67751H16.2366V5.32266H19.3548V7.47321H2.90324V7.47313Z" fill="black"/>
<path d="M3.97859 9.83871H2.90332V10.4839H3.97859V9.83871Z" fill="white"/>
<path d="M5.05379 8.97849H3.97852V9.62364H5.05379V8.97849Z" fill="black"/>
<path d="M8.06453 8.97849H6.98926V9.62364H8.06453V8.97849Z" fill="white"/>
<path d="M12.1505 9.83871H11.0752V10.4839H12.1505V9.83871Z" fill="black"/>
<path d="M17.742 8.97849H16.6667V9.62364H17.742V8.97849Z" fill="white"/>
<path d="M17.742 13.7097H16.6667V14.3548H17.742V13.7097Z" fill="black"/>
<path d="M13.0108 13.7097H11.9355V14.3548H13.0108V13.7097Z" fill="white"/>
<path d="M12.1505 12.8495H11.0752V13.4946H12.1505V12.8495Z" fill="black"/>
<path d="M7.84944 12.8495H6.77417V13.4946H7.84944V12.8495Z" fill="black"/>
<path d="M3.11824 13.7097H2.04297V14.3548H3.11824V13.7097Z" fill="black"/>
<path d="M5.26888 13.7097H4.1936V14.3548H5.26888V13.7097Z" fill="white"/>
<path d="M2.68807 17.1505H1.61279V17.7957H2.68807V17.1505Z" fill="black"/>
<path d="M7.84944 16.2903H6.77417V16.9355H7.84944V16.2903Z" fill="white"/>
<path d="M9.5699 17.1505H8.49463V17.7957H9.5699V17.1505Z" fill="black"/>
<path d="M18.6021 17.1505H17.5269V17.7957H18.6021V17.1505Z" fill="black"/>
<path d="M15.1612 17.1505H14.0859V17.7957H15.1612V17.1505Z" fill="white"/>
<path d="M8.92469 4.67743H8.06445V5.32259H8.92469V4.67743Z" fill="black"/>
<path d="M9.56995 5.53761H8.70972V6.18277H9.56995V5.53761Z" fill="black"/>
<path d="M12.1505 4.67743H11.2903V5.32259H12.1505V4.67743Z" fill="black"/>
<path d="M3.11829 5.96773H2.25806V6.61288H3.11829V5.96773Z" fill="black"/>
<path d="M17.7421 5.96773H16.8818V6.61288H17.7421V5.96773Z" fill="black"/>
</g>
<defs>
<clipPath id="clip0_96_340">
<rect width="20" height="20" fill="white"/>
</clipPath>
</defs>
</svg>
